<svg width="50" height="50" viewBox="0 0 50 50" fill="none" xmlns="http://www.w3.org/2000/svg">
<path fill-rule="evenodd" clip-rule="evenodd" d="M45.5358 14.5848L43.8964 16.2153C40.3445 13.136 35.7902 11.4137 31.0549 11.4137C27.8667 11.4137 24.6802 12.229 21.948 13.6778L28.8691 6.79389C29.4156 7.15566 30.0525 7.3374 30.6912 7.3374C31.6013 7.3374 32.5132 6.97563 33.2407 6.25038C34.6973 4.80158 34.6973 2.53582 33.2407 1.08702C32.5115 0.361775 31.6013 0 30.6912 0C29.781 0 28.8691 0.361775 28.1416 1.08702C26.9582 2.35578 26.7755 4.16635 27.5952 5.52513L18.852 14.2213L17.2127 12.5908L12.7506 17.0289L14.3899 18.6594L5.46405 27.5373C4.91761 27.1756 4.28065 26.9938 3.64199 26.9938C2.73181 26.9938 1.81993 27.3556 1.09247 28.0808C-0.364157 29.5296 -0.364157 31.7954 1.09247 33.2442C1.82164 33.8777 2.73181 34.2412 3.64199 34.2412C4.55217 34.2412 5.46405 33.8794 6.19151 33.1542C7.37491 31.9771 7.55763 30.1649 6.73796 28.7161L13.6591 21.8322C10.0166 28.8078 10.8363 37.504 16.2086 43.6626L14.5692 45.3832L19.1235 49.8213L23.5856 45.3832L19.1235 40.9451L17.5747 42.4856C12.2929 36.3252 12.0197 27.449 16.4818 20.9269L17.211 21.6521L21.7653 17.214L20.9456 16.4888C23.8606 14.4047 27.4125 13.3177 31.0549 13.3177C35.336 13.3177 39.3421 14.8582 42.6208 17.5758L40.9815 19.1163L45.5358 23.5544L49.9979 19.1163L45.5358 14.5865V14.5848ZM21.0361 45.3832L19.1236 47.2855L17.211 45.3832L19.1236 43.4809L21.0361 45.3832V45.3832ZM29.4156 2.44591C29.7793 2.08414 30.2352 1.9024 30.6912 1.9024C31.1471 1.9024 31.6014 2.08414 31.9668 2.44591C32.696 3.17116 32.696 4.25818 31.9668 4.98173C31.6031 5.34351 31.1471 5.52524 30.6912 5.52524C30.2352 5.52524 29.781 5.34351 29.4156 4.98173C28.6864 4.3482 28.6864 3.16946 29.4156 2.44591V2.44591ZM4.91587 31.8855C4.55215 32.2473 4.0962 32.429 3.64026 32.429C3.18432 32.429 2.73008 32.2473 2.36465 31.8855C2.00092 31.6137 1.8182 31.1602 1.8182 30.6167C1.8182 30.1632 2.00092 29.7115 2.36465 29.348C2.72837 28.9845 3.18432 28.8045 3.64026 28.8045C4.0962 28.8045 4.55044 28.9862 4.91587 29.348C5.64504 30.0732 5.64504 31.2503 4.91587 31.8838V31.8855ZM17.1205 19.1129L15.2079 17.2107L17.1205 15.3084L19.0331 17.2107L17.1205 19.1129V19.1129ZM45.5358 21.0151L43.6232 19.1128L45.5358 17.2105L47.4483 19.1128L45.5358 21.0151V21.0151Z" fill="#333333"/>
</svg>
